<?xml version="1.0" standalone="no"?>
<!DOCTYPE svg PUBLIC "-//W3C//DTD SVG 1.1//EN" "http://www.w3.org/Graphics/SVG/1.1/DTD/svg11.dtd" >
<svg xmlns="http://www.w3.org/2000/svg" xmlns:xlink="http://www.w3.org/1999/xlink" version="1.1">
<metadata></metadata>
<defs>
<font id="fira_codelight" horiz-adv-x="1200" >
<font-face units-per-em="2000" ascent="1600" descent="-400" />
<missing-glyph horiz-adv-x="500" />
<glyph horiz-adv-x="0" />
<glyph />
<glyph unicode="&#xd;" />
<glyph unicode=" " />
<glyph unicode="!" d="M479 102q0 49 33.5 83.5t84.5 34.5q53 0 87.5 -34.5t34.5 -83.5q0 -51 -34.5 -86.5t-87.5 -35.5q-51 0 -84.5 35.5t-33.5 86.5zM522 1374h144l-11 -937h-120z" />
<glyph unicode="&#x22;" d="M348 1475h184l-29 -508h-125zM669 1475h183l-30 -508h-124z" />
<glyph unicode="#" d="M116 354v107h184l63 457h-173v108h187l47 348h108l-50 -348h324l46 348h109l-50 -348h172v-108h-185l-62 -457h173v-107h-189l-44 -354h-109l47 354h-321l-46 -354h-109l48 354h-170zM408 461h321l63 457h-323z" />
<glyph unicode="$" d="M154 170l85 91q61 -65 141.5 -110t181.5 -53v594q-163 55 -259 145t-96 228q0 72 37.5 142.5t116.5 121.5t201 62v301h127v-302q119 -13 210.5 -59t149.5 -102l-88 -90q-58 56 -125.5 91t-146.5 46v-488q91 -29 176.5 -80t141.5 -132.5t56 -204.5q0 -90 -41.5 -171.5 t-124.5 -138t-208 -73.5v-289h-127v283q-140 9 -241.5 66.5t-166.5 121.5zM355 1057q0 -75 44 -129t163 -101v444q-88 -15 -147.5 -66.5t-59.5 -147.5zM689 107q226 45 226 272q0 92 -50 157t-176 115v-544z" />
<glyph unicode="%" d="M34 35l1022 1374l90 -70l-1025 -1374zM46 1071q0 85 35 158.5t102 118.5t161 45q95 0 160.5 -46t100 -119.5t34.5 -156.5q0 -82 -34.5 -157t-100 -122.5t-160.5 -47.5q-94 0 -161 47.5t-102 122.5t-35 157zM185 1071q0 -106 46.5 -163t112.5 -57q62 0 109 51.5t47 168.5 q0 116 -47 164t-109 48t-110.5 -51t-48.5 -161zM564 314q0 86 35 159.5t102 118.5t161 45q95 0 160.5 -46t100 -119.5t34.5 -157.5q0 -82 -34.5 -156.5t-100 -122t-160.5 -47.5q-94 0 -161 47.5t-102 122t-35 156.5zM703 314q0 -105 46.5 -162t112.5 -57q62 0 109 51.5 t47 167.5t-47 164.5t-109 48.5t-110.5 -49t-48.5 -164z" />
<glyph unicode="&#x26;" d="M117 387q0 152 81 253.5t235 131.5v5q-94 21 -146.5 67t-74 104t-21.5 115q0 87 43.5 161.5t126 120.5t197.5 46q80 0 157.5 -27.5t160.5 -118.5l-80 -76q-53 62 -112 92t-140 30q-115 0 -172 -61t-57 -155q0 -63 35.5 -119t95.5 -90.5t133 -34.5h565v-111h-193v-551 q-26 -37 -76 -81t-130 -76t-195 -32q-155 0 -250.5 61.5t-139 155t-43.5 190.5zM239 388q0 -74 31.5 -143t100 -113t180.5 -44q93 0 168 31.5t121 89.5v511h-287q-111 0 -180 -52.5t-101.5 -129t-32.5 -150.5z" />
<glyph unicode="'" d="M509 1475h183l-29 -508h-125z" />
<glyph unicode="(" d="M263 700q0 231 61 399.5t176.5 304t278.5 266.5l60 -70q-110 -92 -193 -182t-138.5 -192.5t-83 -230.5t-27.5 -295q0 -221 51 -378.5t149.5 -280.5t241.5 -241l-60 -70q-163 132 -278.5 267.5t-176.5 304t-61 398.5z" />
<glyph unicode=")" d="M361 -200q143 118 241.5 241t149.5 280.5t51 378.5q0 167 -27.5 295t-83 230.5t-138.5 192.5t-193 182l60 70q164 -131 279 -266.5t176 -304t61 -399.5q0 -230 -61 -398.5t-176 -304t-279 -267.5z" />
<glyph unicode="*" d="M109 743l392 -125l-245 -332l103 -75l241 336l241 -336l103 75l-245 332l392 125l-39 121l-390 -129l4 414h-132l4 -414l-390 129z" />
<glyph unicode="+" d="M150 565v111h385v395h125v-395h390v-111h-390v-391h-125v391h-385z" />
<glyph unicode="," d="M419 -345l94 386q-25 20 -40.5 52t-15.5 68q0 59 41 101t102 42q62 0 103.5 -42t41.5 -101q0 -29 -4.5 -59.5t-20.5 -62.5l-167 -384h-134z" />
<glyph unicode="-" d="M209 568v116h782v-116h-782z" />
<glyph unicode="." d="M437 144q0 45 21 81.5t57 57.5t82 21q48 0 85 -21t58 -57.5t21 -81.5q0 -46 -21 -83.5t-58 -59t-85 -21.5q-46 0 -82 21.5t-57 59t-21 83.5z" />
<glyph unicode="/" d="M119 -156l861 1770l101 -51l-859 -1764z" />
<glyph unicode="0" d="M164 687q0 342 111 524t325 182q215 0 325.5 -182t110.5 -524q0 -343 -110.5 -525t-325.5 -182q-214 0 -325 182t-111 525zM306 687q0 -206 32.5 -338.5t97.5 -196t164 -63.5q90 0 156.5 62t102.5 194.5t36 341.5q0 207 -31.5 339.5t-97 195.5t-166.5 63 q-133 0 -213.5 -140.5t-80.5 -457.5zM338 282l479 953l33 -139l-458 -924z" />
<glyph unicode="1" d="M212 1126l399 248h108v-1334h-127v1191l-325 -196zM252 0v107h763v-107h-763z" />
<glyph unicode="2" d="M130 1207q83 98 178.5 142t226.5 44q122 0 210.5 -49t137 -135t48.5 -197q0 -98 -34 -191.5t-109 -196t-195.5 -227t-294.5 -283.5h665l-17 -114h-788v111q161 154 273 269t184 201.5t112 157.5t55.5 136t15.5 138q0 126 -70.5 198t-193.5 72q-109 0 -176 -35.5 t-136 -113.5z" />
<glyph unicode="3" d="M123 157l94 70q58 -69 142 -103.5t169 -34.5q156 0 241.5 82t85.5 221q0 106 -40 166.5t-108 86t-152 25.5h-112l16 107h78q69 0 132.5 27.5t104.5 85t41 145.5q0 125 -82 189t-196 64q-91 0 -158 -31t-138 -98l-72 84q86 80 179 115t187 35q124 0 215.5 -46.5t142 -124 t50.5 -170.5q0 -82 -37.5 -150.5t-97.5 -112.5t-129 -55q76 -4 146.5 -44t116 -113t45.5 -178q0 -120 -58.5 -215t-162.5 -149.5t-239 -54.5q-104 0 -215.5 41t-188.5 136z" />
<glyph unicode="4" d="M160 348v96l410 949l102 -48l-378 -893h748v-104h-882zM732 0v420l18 439h102v-859h-120z" />
<glyph unicode="5" d="M177 134l80 81q67 -64 141.5 -95t168.5 -31q144 0 223 87t79 262q0 119 -36 186.5t-96.5 96t-133.5 28.5q-68 0 -116 -12t-113 -34h-112v671h695l-22 -106h-555v-475q67 37 124 50.5t124 13.5q114 0 197.5 -49.5t129 -145t45.5 -232.5q0 -136 -54 -237.5t-153 -157 t-235 -55.5q-117 0 -208.5 40.5t-172.5 113.5z" />
<glyph unicode="6" d="M176 658q0 227 57.5 391.5t166 254t262.5 89.5q76 0 141 -20t123 -58l-50 -91q-49 29 -104 44t-116 15q-119 0 -200 -80t-121 -224t-38 -336l2 -55q1 -260 75.5 -379t239.5 -119q143 0 215.5 97.5t72.5 273.5q0 178 -75 245t-195 67q-121 0 -209 -72.5t-140 -183.5 l-5 133q69 127 157 182t206 55q106 0 194.5 -45t142.5 -139.5t54 -241.5q0 -156 -58 -263t-153 -162.5t-205 -55.5q-122 0 -206 46t-135.5 133.5t-75 213.5t-23.5 285z" />
<glyph unicode="7" d="M212 1264v110h782v-103l-553 -1286l-114 34l542 1245h-657z" />
<glyph unicode="8" d="M145 365q0 130 77.5 217t204.5 146q-110 48 -168 123t-58 190q0 96 39.5 163t101 109t130.5 61t127 19q68 0 138 -19t129.5 -60t96 -107t36.5 -159q0 -102 -65 -176.5t-181 -137.5q133 -51 217.5 -143.5t84.5 -223.5q0 -114 -57.5 -201.5t-160.5 -136.5t-240 -49 q-141 0 -242.5 50.5t-155.5 137.5t-54 197zM280 359q0 -127 79 -198t234 -71q156 0 241.5 77.5t85.5 196.5q0 100 -53 157t-143.5 94.5t-203.5 75.5q-62 -26 -117 -67t-89 -105t-34 -160zM327 1038q0 -88 41 -135.5t116 -76t175 -60.5q104 56 159 115t55 164q0 113 -72 178 t-202 65q-128 0 -200 -66.5t-72 -183.5z" />
<glyph unicode="9" d="M147 951q0 147 58 244.5t155 146t215 48.5q144 0 240 -68.5t143.5 -195t47.5 -302.5q0 -211 -40 -352.5t-124.5 -234t-217.5 -155.5t-319 -119l-31 100q201 58 333.5 136.5t198.5 200.5t66 308l4 92q0 180 -34.5 285t-101 150t-164.5 45q-149 0 -223.5 -87t-74.5 -252 q0 -166 71.5 -243t202.5 -77q113 0 194 66t151 177v-137q-58 -92 -146.5 -153t-209.5 -61q-116 0 -205 52t-139 150t-50 236z" />
<glyph unicode=":" d="M451 129q0 59 42 103t104 44q65 0 107.5 -44t42.5 -103q0 -63 -42.5 -106t-107.5 -43q-62 0 -104 43t-42 106zM451 859q0 62 42 104t104 42q65 0 107.5 -42t42.5 -104q0 -61 -42.5 -105t-107.5 -44q-62 0 -104 44t-42 105z" />
<glyph unicode=";" d="M414 -350l95 393q-58 43 -58 122q0 60 42.5 103.5t103.5 43.5q65 0 107.5 -43.5t42.5 -102.5q0 -31 -5 -61.5t-22 -65.5l-169 -389h-137zM451 859q0 62 42 104t104 42q65 0 107.5 -42t42.5 -104q0 -61 -42.5 -105t-107.5 -44q-62 0 -104 44t-42 105z" />
<glyph unicode="&#x3c;" d="M187 549v156l764 472l65 -102l-723 -450l723 -456l-75 -93z" />
<glyph unicode="=" d="M230 380v116h740v-116h-740zM230 748v115h740v-115h-740z" />
<glyph unicode="&#x3e;" d="M187 173l723 452l-723 455l64 97l765 -472v-156l-754 -473z" />
<glyph unicode="?" d="M199 1200q88 103 190 148t212 45q114 0 198.5 -43.5t130.5 -112.5t46 -145q0 -95 -36 -155t-89 -102t-106.5 -82.5t-89.5 -95.5t-36 -142v-78h-134v88q0 95 36.5 158.5t90.5 109.5t108 86.5t90.5 89t36.5 118.5q0 95 -74.5 146.5t-184.5 51.5q-72 0 -150 -36t-143 -117z M439 102q0 49 34 83.5t84 34.5q53 0 87.5 -34.5t34.5 -83.5q0 -51 -34.5 -86.5t-87.5 -35.5q-50 0 -84 35.5t-34 86.5z" />
<glyph unicode="@" d="M25 1178q134 116 275 165.5t265 49.5q159 0 266 -49t173 -133t100.5 -191.5t46.5 -225t12 -231.5q0 -252 -22.5 -416.5t-84.5 -245t-180 -80.5q-64 0 -110 32.5t-74.5 80t-40.5 95.5t-9 79h-8q-17 -45 -49 -90.5t-85.5 -76t-136.5 -30.5q-106 0 -171 59t-95 163t-30 237 q0 265 104 387t279 122q67 0 124 -13t142 -58v-588q0 -118 22 -178.5t58 -82t79 -21.5q52 0 80.5 52t40.5 141t14 201.5t2 232.5q0 139 -15.5 264.5t-61 222.5t-133 153t-230.5 56q-94 0 -211 -34t-248 -150zM195 370q0 -100 16 -180t55 -127t106 -47q77 0 123 34.5t71 79 t39 72.5v542q-65 33 -143 33q-154 0 -210.5 -106.5t-56.5 -300.5z" />
<glyph unicode="A" d="M60 0l455 1374h169l456 -1374h-132l-121 367h-586l-121 -367h-120zM344 483h501l-249 772z" />
<glyph unicode="B" d="M217 0v1374h309q86 0 170 -16t152.5 -55t110 -106t41.5 -168q0 -90 -37 -152t-95.5 -98.5t-123.5 -50.5q77 -13 149.5 -47.5t119.5 -104t47 -187.5q0 -110 -44 -185t-116.5 -120t-161 -64.5t-178.5 -19.5h-343zM344 115h259q51 0 107 10.5t104.5 38.5t78.5 79.5t30 133.5 q0 114 -44 174.5t-115.5 83.5t-154.5 23h-265v-543zM344 779h255q127 0 198 59t71 189q0 128 -79 181.5t-209 53.5h-236v-483z" />
<glyph unicode="C" d="M144 687q0 232 79.5 389t210 237t282.5 80q131 0 218 -32.5t167 -96.5l-78 -89q-67 57 -140.5 79.5t-152.5 22.5q-120 0 -223.5 -55t-166.5 -183.5t-63 -351.5q0 -217 60 -346t161.5 -186t225.5 -57q119 0 195.5 34t130.5 79l72 -92q-58 -56 -155.5 -97.5t-240.5 -41.5 q-161 0 -293.5 81.5t-210.5 239t-78 386.5z" />
<glyph unicode="D" d="M186 0v1374h277q117 0 229 -26.5t202.5 -99t144 -206t53.5 -348.5q0 -218 -56 -354.5t-147.5 -210.5t-197.5 -101.5t-207 -27.5h-298zM313 110h192q76 0 154.5 24t145 87t107.5 177.5t41 295.5q0 192 -42.5 305.5t-110.5 169.5t-146.5 74t-151.5 18h-189v-1151z" />
<glyph unicode="E" d="M270 0v1374h746l-17 -114h-601v-503h520v-117h-520v-529h641v-111h-769z" />
<glyph unicode="F" d="M295 0v1374h781l-17 -114h-638v-517h556v-111h-556v-632h-126z" />
<glyph unicode="G" d="M105 687q0 178 47 310.5t126.5 220.5t179 131.5t203.5 43.5q130 0 214 -36t165 -110l-85 -88q-63 60 -136 88t-162 28q-76 0 -149.5 -29.5t-132.5 -96.5t-94.5 -180t-35.5 -281q0 -205 45 -335.5t133.5 -192.5t216.5 -62q78 0 149.5 18.5t138.5 55.5v450h-299l-18 119 h449v-647q-90 -46 -191 -80t-249 -34q-153 0 -269 77.5t-181 234.5t-65 395z" />
<glyph unicode="H" d="M186 0v1374h127v-596h574v596h127v-1374h-127v674h-574v-674h-127z" />
<glyph unicode="I" d="M223 0v109h312v1156h-312v109h754v-109h-312v-1156h312v-109h-754z" />
<glyph unicode="J" d="M165 103l63 89q95 -59 172.5 -78t133.5 -19q155 0 234.5 99t79.5 265v803h-403v112h530v-929q0 -76 -18.5 -157.5t-66.5 -151.5t-135 -113.5t-224 -43.5q-92 0 -189 31.5t-177 92.5z" />
<glyph unicode="K" d="M237 0v1374h127v-1374h-127zM374 734l591 640h157l-581 -633l619 -741h-167z" />
<glyph unicode="L" d="M296 0v1374h128v-1250h637l-16 -124h-749z" />
<glyph unicode="M" d="M69 0l78 1374h213l244 -957l233 957h216l78 -1374h-131l-51 757q-4 69 -7.5 147t-5.5 150.5t-3.5 125.5t-2.5 71l-255 -1001h-152l-273 1001q0 -18 -0.5 -74t-0.5 -130.5t-2 -151t-5 -135.5l-45 -760h-128z" />
<glyph unicode="N" d="M186 0v1374h183l534 -1247q1 6 1 18q0 25 -3 75q-4 75 -8.5 185t-4.5 233v736h126v-1374h-197l-520 1239v-15q0 -18 1 -52q2 -50 6 -122t6 -152.5t2 -157.5v-740h-126z" />
<glyph unicode="O" d="M107 682q0 206 55 366.5t165 252.5t273 92q164 0 273.5 -89.5t164.5 -249t55 -369.5q0 -205 -55 -364.5t-164.5 -250t-273.5 -90.5q-163 0 -273 88.5t-165 246.5t-55 367zM243 682q0 -280 86 -432t271 -152q190 0 273.5 152.5t83.5 434.5q0 281 -83 435.5t-274 154.5 t-274 -156t-83 -437z" />
<glyph unicode="P" d="M263 0v1374h326q236 0 374.5 -100.5t138.5 -313.5q0 -161 -68 -256t-187 -136.5t-272 -41.5h-184v-526h-128zM391 637h211q103 0 184 26.5t128.5 96t47.5 197.5q0 117 -46.5 184t-125 95.5t-174.5 28.5h-225v-628z" />
<glyph unicode="Q" d="M99 682q0 206 56.5 366.5t167.5 252.5t274 92q164 0 274.5 -89.5t167 -249t56.5 -369.5q0 -223 -63.5 -387t-219.5 -253q93 -19 159 -58t111.5 -104t77.5 -163l-157 -66q-41 107 -94 180.5t-132 111.5t-197 38q-154 0 -261.5 87.5t-163.5 244.5t-56 366zM232 682 q0 -281 90 -432.5t275 -151.5q190 0 278 152.5t88 434.5t-87.5 436.5t-278.5 154.5t-278 -155.5t-87 -438.5z" />
<glyph unicode="R" d="M229 0v1374h329q247 0 375 -96t128 -279q0 -105 -47 -182.5t-127 -127t-180 -70.5l422 -619h-160l-398 609h-214v-609h-128zM357 719h223q161 0 250.5 63.5t89.5 216.5q0 142 -81.5 203.5t-254.5 61.5h-227v-545z" />
<glyph unicode="S" d="M106 149l84 96q70 -67 163 -107.5t223 -40.5q88 0 167 30t129 92t50 158q0 72 -27 122.5t-96 90t-194 75.5q-128 37 -228 84.5t-157 120t-57 183.5q0 96 52.5 173t147.5 122t223 45q137 0 237.5 -39t185.5 -112l-86 -94q-75 68 -161.5 98t-175.5 30q-79 0 -146 -24.5 t-108 -73.5t-41 -125q0 -64 34 -110.5t114.5 -85t217.5 -78.5q100 -28 191 -71.5t148.5 -122t57.5 -211.5q0 -115 -56.5 -204t-164.5 -139.5t-264 -50.5q-137 0 -256.5 43t-206.5 126z" />
<glyph unicode="T" d="M90 1256v118h1015l-14 -118h-431v-1256h-127v1256h-443z" />
<glyph unicode="U" d="M163 441v933h126v-977q0 -148 85 -221.5t223 -73.5q140 0 225.5 73.5t85.5 221.5v977h129v-933q0 -139 -56 -242.5t-155 -161t-229 -57.5q-132 0 -229.5 58.5t-151 162.5t-53.5 240z" />
<glyph unicode="V" d="M64 1374h139l400 -1194l405 1194h127l-479 -1374h-112z" />
<glyph unicode="W" d="M14 1374h134l177 -1210l180 1050h192l172 -1050l193 1210h124l-224 -1374h-194l-175 1053l-173 -1053h-200z" />
<glyph unicode="X" d="M78 0l444 733l-405 641h153l330 -554l330 554h140l-397 -633l448 -741h-153l-372 650l-379 -650h-139z" />
<glyph unicode="Y" d="M66 1374h142l395 -717l400 717h131l-469 -840v-534h-130v532z" />
<glyph unicode="Z" d="M162 0v110l749 1147h-677v117h807v-111l-746 -1146h739l-17 -117h-855z" />
<glyph unicode="[" d="M385 -226v1852h467v-117h-350v-1620h350v-115h-467z" />
<glyph unicode="\" d="M119 1563l101 51l861 -1770l-103 -45z" />
<glyph unicode="]" d="M348 -112h350v1621h-350v117h467v-1852h-467v114z" />
<glyph unicode="^" d="M168 1054l378 622h108l378 -622h-145l-289 497l-290 -497h-140z" />
<glyph unicode="_" d="M100 -243h1000v-117h-1000v117z" />
<glyph unicode="`" d="M382 1429l80 116l349 -228l-45 -73z" />
<glyph unicode="a" d="M157 303q0 160 124.5 245t362.5 85h159v102q0 123 -70.5 172.5t-192.5 49.5q-53 0 -120 -12t-149 -41l-36 102q95 35 172.5 49t150.5 14q185 0 279.5 -90.5t94.5 -239.5v-532q0 -64 22 -93.5t68 -43.5l-34 -91q-60 9 -107 44t-66 107q-55 -73 -137.5 -111.5t-186.5 -38.5 q-156 0 -245 88t-89 235zM294 299q0 -109 54 -164.5t167 -55.5q86 0 161 42t127 117v300h-174q-187 0 -261 -65.5t-74 -173.5z" />
<glyph unicode="b" d="M219 0v1475l124 17v-587q60 79 137.5 121.5t171.5 42.5q142 0 229 -68t126.5 -190.5t39.5 -285.5q0 -158 -47.5 -281t-139.5 -193.5t-227 -70.5q-188 0 -294 133l-12 -113h-108zM343 236q45 -67 114.5 -107.5t148.5 -40.5q146 0 223.5 109.5t77.5 329.5q0 140 -30.5 237 t-91 148t-151.5 51q-98 0 -172 -58.5t-119 -124.5v-544z" />
<glyph unicode="c" d="M197 521q0 156 55.5 280t162 196t260.5 72q95 0 181.5 -30t159.5 -89l-66 -89q-71 49 -140.5 73.5t-140.5 24.5q-145 0 -239.5 -110t-94.5 -328q0 -147 43 -241.5t118.5 -140t172.5 -45.5q84 0 155.5 26t129.5 67l65 -84q-69 -58 -165 -90.5t-180 -32.5 q-153 0 -259.5 66.5t-162 188.5t-55.5 286z" />
<glyph unicode="d" d="M153 522q0 157 48.5 280.5t140 195t221.5 71.5q96 0 168 -33.5t126 -98.5v555l124 -17v-1475h-108l-16 145q-63 -90 -140.5 -127.5t-159.5 -37.5q-139 0 -228.5 68.5t-132.5 191t-43 282.5zM293 523q0 -138 31.5 -235.5t93.5 -148.5t155 -51q100 0 169.5 56t114.5 123 v546q-46 71 -114.5 110t-148.5 39q-146 0 -223.5 -110.5t-77.5 -328.5z" />
<glyph unicode="e" d="M176 524q0 160 56 283t155.5 192.5t231.5 69.5q128 0 219 -62t139.5 -175.5t48.5 -270.5q0 -27 -1 -48.5t-2 -37.5h-714q3 -132 47.5 -216.5t117.5 -124.5t159 -40q83 0 147.5 24t135.5 73l65 -93q-73 -56 -164.5 -87t-178.5 -31q-145 0 -248.5 68t-158.5 190.5 t-55 285.5zM311 587h597q-4 185 -83 275.5t-203 90.5q-127 0 -213.5 -90t-97.5 -276z" />
<glyph unicode="f" d="M198 858v106h260v227q0 95 50.5 162.5t134 103t182.5 35.5q76 0 139 -14t123 -40l-45 -101q-49 23 -106 34.5t-119 11.5q-115 0 -175 -46t-60 -138v-235h361l-13 -106h-348v-858h-124v858h-260z" />
<glyph unicode="g" d="M152 -108h114q0 -66 25.5 -109t91.5 -64.5t189 -21.5q121 0 200.5 20.5t119.5 62.5t40 106q0 83 -77 124t-185 41h-194q-126 0 -186 59t-60 135q0 48 28.5 94.5t85.5 84.5q-87 46 -130 116t-43 171q0 103 51 184t142 128t211 47q137 2 218.5 10.5t138 24.5t117.5 40 l46 -136q-71 -20 -147 -24t-162 -4q89 -41 133 -108.5t44 -153.5q0 -104 -45 -185.5t-129.5 -127.5t-205.5 -46q-59 0 -96 5.5t-72 17.5q-25 -19 -42.5 -50t-17.5 -65q0 -41 32.5 -68t115.5 -27h194q101 0 183.5 -37t131 -100t48.5 -142q0 -153 -128.5 -232.5t-355.5 -79.5 q-157 0 -250 32.5t-133.5 101t-40.5 176.5zM299 709q0 -112 67 -187.5t212 -75.5q121 0 185 70t64 194q0 128 -64 195t-191 67q-142 0 -207.5 -75t-65.5 -188z" />
<glyph unicode="h" d="M219 0v1472l124 15v-592q61 86 155 130t188 44q158 0 228 -82t70 -227v-760h-124v782q0 94 -51 139t-155 45q-68 0 -129 -30t-108 -73.5t-74 -85.5v-777h-124z" />
<glyph unicode="i" d="M262 0v108h332v834h-322v108h446v-942h305v-108h-761zM500 1426q0 41 28 70t73 29q48 0 76 -29t28 -70q0 -44 -28 -73.5t-76 -29.5q-45 0 -73 29.5t-28 73.5z" />
<glyph unicode="j" d="M207 -321q154 23 277 73.5t194.5 140t71.5 226.5v823h-455v108h579v-922q0 -160 -77.5 -270t-222 -177t-346.5 -99zM631 1426q0 41 27.5 70t72.5 29q48 0 76.5 -29t28.5 -70q0 -44 -28.5 -73.5t-76.5 -29.5q-45 0 -72.5 29.5t-27.5 73.5z" />
<glyph unicode="k" d="M233 0v1475l124 17v-1492h-124zM378 573l501 477h185l-511 -475l573 -575h-179z" />
<glyph unicode="l" d="M136 1367v108h450v-1237q0 -82 52.5 -116t132.5 -34q50 0 94.5 10t90.5 28l36 -96q-39 -19 -99 -34.5t-134 -15.5q-124 0 -210.5 67.5t-86.5 190.5v1129h-326z" />
<glyph unicode="m" d="M115 0v1050h102l7 -127q41 59 95.5 102.5t135.5 43.5q60 0 116.5 -28.5t83.5 -114.5q41 64 94 103.5t137 39.5q43 0 89 -19.5t78 -80.5t32 -186v-783h-122v759q0 112 -12.5 162t-76.5 50q-54 0 -106.5 -33.5t-99.5 -109.5v-828h-138v759q0 112 -12.5 162t-76.5 50 q-56 0 -107.5 -33.5t-98.5 -109.5v-828h-120z" />
<glyph unicode="n" d="M219 0v1050h104l10 -153q62 82 163.5 127t189.5 45q161 0 229.5 -82t68.5 -227v-760h-124v627q0 120 -13 195t-56 109.5t-135 34.5q-70 0 -131.5 -30.5t-108 -75t-73.5 -86.5v-774h-124z" />
<glyph unicode="o" d="M166 523q0 161 49 284t146.5 192.5t241.5 69.5t240 -67t143.5 -189t47.5 -288q0 -156 -49 -279t-145.5 -194.5t-239.5 -71.5q-144 0 -240.5 68.5t-145 191t-48.5 283.5zM302 523q0 -218 75 -325.5t223 -107.5t223 107.5t75 327.5q0 221 -74.5 328t-220.5 107 q-148 0 -224.5 -107t-76.5 -330z" />
<glyph unicode="p" d="M219 -418v1468h102l14 -155q56 80 137.5 127t182.5 47q141 0 224 -68t119 -190.5t36 -285.5q0 -158 -43.5 -281t-133 -193.5t-228.5 -70.5q-179 0 -286 125v-506zM343 236q44 -65 114 -104t152 -39q146 0 217.5 107t71.5 327q0 140 -28 237t-86.5 148t-150.5 51 q-97 0 -171 -58.5t-119 -124.5v-544z" />
<glyph unicode="q" d="M166 522q0 157 44.5 280.5t132.5 195t217 71.5q100 0 174 -36.5t129 -106.5l14 124h104v-1468l-124 17v547q-61 -88 -140.5 -127t-162.5 -39q-143 0 -228.5 67.5t-122.5 189.5t-37 285zM302 523q0 -138 29 -234.5t88 -146.5t150 -50q98 0 170 54t118 121v546 q-44 71 -114.5 110t-153.5 39q-144 0 -215.5 -110.5t-71.5 -328.5z" />
<glyph unicode="r" d="M229 0v104h171v841h-171v105h266l23 -252q62 128 148.5 200.5t233.5 72.5q41 0 73.5 -6t68.5 -15l-35 -117q-35 10 -61.5 14.5t-60.5 4.5q-127 0 -216 -86.5t-145 -273.5v-488h216v-104h-511zM908 720v205l8 125h126l-14 -330h-120z" />
<glyph unicode="s" d="M163 117l77 91q62 -52 143 -83.5t174 -31.5q134 0 210.5 51.5t76.5 135.5q0 52 -16.5 90.5t-71 69t-167.5 57.5q-113 28 -195.5 62t-127.5 89t-45 146q0 87 49.5 148.5t136 94t195.5 32.5q123 0 214.5 -33t153.5 -80l-58 -92q-58 41 -129 68t-180 27q-139 0 -195 -44 t-56 -111q0 -52 27.5 -85.5t90.5 -59t170 -54.5q103 -27 180 -65t120 -99t43 -158q0 -111 -62.5 -177.5t-160.5 -96t-204 -29.5q-139 0 -234.5 41t-158.5 96z" />
<glyph unicode="t" d="M172 946v104h248v242l124 15v-257h370l-17 -104h-353v-668q0 -91 49.5 -140.5t166.5 -49.5q60 0 111 14t95 37l54 -89q-52 -34 -126 -52t-137 -18q-158 0 -247.5 84t-89.5 211v671h-248z" />
<glyph unicode="u" d="M219 284v766h124v-751q0 -112 47.5 -163.5t150.5 -51.5q98 0 184 55.5t132 127.5v783h124v-1050h-104l-14 147q-64 -80 -156 -123.5t-184 -43.5q-152 0 -228 79.5t-76 224.5z" />
<glyph unicode="v" d="M140 1050h129l334 -924l327 924h130l-391 -1050h-143z" />
<glyph unicode="w" d="M43 1050h137l154 -974l185 840h179l176 -840l153 974h130l-194 -1050h-205l-150 790l-163 -790h-199z" />
<glyph unicode="x" d="M131 0l396 555l-344 495h153l266 -407l272 407h149l-349 -489l395 -561h-161l-311 468l-319 -468h-147z" />
<glyph unicode="y" d="M143 1050h134l331 -944l320 944h129l-375 -1059q-34 -97 -84 -184t-133 -147.5t-216 -76.5l-22 108q110 20 172.5 60t98 102t63.5 147h-41z" />
<glyph unicode="z" d="M223 0v99l601 833h-554v118h707v-102l-598 -833h602l-19 -115h-739z" />
<glyph unicode="{" d="M242 651v98q149 0 217.5 26t84.5 74t9 114l-44 411q-9 89 23.5 146.5t91.5 89.5t130.5 45t139.5 13v-106q-77 0 -141 -15.5t-100 -52.5t-30 -101l45 -445q8 -75 -6 -126t-49.5 -80.5t-94.5 -41.5q59 -11 95 -38.5t49.5 -78t5.5 -131.5l-45 -445q-6 -65 29.5 -102t100 -52 t141.5 -15v-106q-68 0 -139.5 13t-131 45t-92 89.5t-22.5 147.5l44 408q7 66 -9.5 114.5t-84.5 75t-217 26.5z" />
<glyph unicode="|" d="M545 -201v1812h108v-1812h-108z" />
<glyph unicode="}" d="M306 -162q77 0 141 15t100.5 52t29.5 102l-45 445q-8 82 6 132t55.5 76.5t117.5 36.5q-70 13 -112 43.5t-58 81.5t-9 126l45 445q7 64 -29.5 101t-100 52.5t-141.5 15.5v106q68 0 139.5 -13t131 -45t92 -89.5t22.5 -147.5l-44 -410q-7 -66 15.5 -114t92 -74t203.5 -26 v-98q-134 0 -203.5 -26.5t-92 -75t-15.5 -114.5l44 -409q9 -89 -23.5 -146.5t-91.5 -89.5t-130.5 -45t-139.5 -13v106z" />
<glyph unicode="~" d="M100 547q27 51 65.5 106t98.5 93t148 38q76 0 128 -30t92 -70t77.5 -70t83.5 -30q64 0 115 51.5t89 121.5l103 -56q-25 -46 -64.5 -101t-99.5 -94.5t-148 -39.5q-70 0 -120.5 30t-91.5 70t-81 70t-88 30q-67 0 -116 -50.5t-88 -122.5z" />
<glyph unicode="&#xa0;" />
<glyph unicode="&#xa1;" d="M479 869q0 51 33.5 85.5t84.5 34.5t86.5 -34.5t35.5 -85.5q0 -49 -35.5 -84.5t-86.5 -35.5t-84.5 35.5t-33.5 84.5zM522 -390l19 923h112l21 -923h-152z" />
<glyph unicode="&#xa2;" d="M228 521q0 144 42 260t127 189t213 89v302h124v-301q62 -5 121.5 -28t116.5 -69l-69 -88q-69 50 -124.5 67t-114.5 17q-139 0 -218.5 -110t-79.5 -328q0 -220 80 -323.5t219 -103.5q61 0 118.5 20t125.5 72l63 -94q-56 -49 -116 -71.5t-122 -30.5v-292h-126v293 q-190 20 -285 160.5t-95 369.5z" />
<glyph unicode="&#xa3;" d="M163 664v103h169v272q0 101 43.5 181t123.5 126.5t190 46.5q100 0 189 -37.5t154 -125.5l-90 -70q-53 62 -114.5 91t-138.5 29q-114 0 -173 -66.5t-59 -191.5v-255h428v-103h-428v-277q0 -83 -22 -155.5t-100 -116.5h685l-15 -115h-837v109q81 26 115 66t41.5 91t7.5 108 v290h-169z" />
<glyph unicode="&#xa4;" d="M71 247l183 182q-34 52 -54 116t-20 139q0 74 20 137.5t52 112.5l-181 185l98 99l183 -185q51 32 114.5 51t135.5 19q71 0 134 -17.5t112 -52.5l183 183l98 -99l-179 -181q35 -49 55.5 -113.5t20.5 -138.5q0 -77 -21.5 -141t-56.5 -116l181 -178l-98 -100l-186 182 q-49 -33 -110.5 -50.5t-132.5 -17.5q-73 0 -136 17.5t-114 50.5l-183 -183zM328 684q0 -144 70 -225t204 -81q135 0 204 81t69 225q0 143 -69 224.5t-204 81.5q-134 0 -204 -81.5t-70 -224.5z" />
<glyph unicode="&#xa5;" d="M98 1374h146l357 -651h8l359 651h134l-397 -687h250v-104h-288v-182h288v-102h-288v-299h-136v299h-284v102h284v182h-284v104h244z" />
<glyph unicode="&#xa6;" d="M545 -201v705h108v-705h-108zM545 906v705h108v-705h-108z" />
<glyph unicode="&#xa7;" d="M229 -21l74 89q58 -43 121 -64.5t151 -21.5q89 0 151.5 41t62.5 114q0 50 -21 83t-75 60.5t-153 60.5q-169 59 -240 125.5t-71 182.5q0 79 48 143.5t113 104.5q-55 41 -87 93.5t-32 119.5q0 90 50.5 153.5t133 96.5t177.5 33q110 0 183.5 -29.5t136.5 -76.5l-72 -94 q-58 41 -117 64.5t-148 23.5q-90 0 -148 -42.5t-58 -113.5q0 -49 21 -82.5t75.5 -62t155.5 -63.5q169 -57 238 -124t69 -180q0 -80 -47.5 -144.5t-113.5 -104.5q54 -40 87.5 -92.5t33.5 -121.5q0 -89 -48 -152t-131 -96t-189 -33q-107 0 -187.5 30.5t-143.5 79.5zM365 663 q0 -63 29.5 -98t108 -67t223.5 -86q51 40 80 88.5t29 96.5q0 60 -29.5 94.5t-107.5 67.5t-223 88q-52 -40 -81 -89t-29 -95z" />
<glyph unicode="&#xa8;" d="M306 1393q0 41 26.5 67t67.5 26q38 0 64.5 -26t26.5 -67q0 -39 -26.5 -64.5t-64.5 -25.5q-41 0 -67.5 25.5t-26.5 64.5zM706 1393q0 41 26 67t65 26q41 0 67.5 -26t26.5 -67q0 -39 -26.5 -64.5t-67.5 -25.5q-39 0 -65 25.5t-26 64.5z" />
<glyph unicode="&#xa9;" d="M71 877q0 168 62.5 306.5t181 220.5t287.5 82q168 0 285.5 -82t179.5 -220.5t62 -306.5q0 -167 -62 -305.5t-179.5 -221t-285.5 -82.5q-166 0 -285 82.5t-182.5 221t-63.5 305.5zM167 877q0 -143 48.5 -261t145 -187.5t241.5 -69.5q144 0 240.5 69.5t144.5 187.5t48 261 q0 145 -48.5 263t-144.5 188t-240 70q-145 0 -241.5 -70t-145 -188t-48.5 -263zM285 879q0 125 45.5 208t119 124.5t156.5 41.5q77 0 128.5 -18.5t105.5 -54.5l-63 -88q-42 35 -85 49.5t-85 14.5q-85 0 -144.5 -64.5t-59.5 -212.5q0 -136 57 -203t147 -67q58 0 102.5 19.5 t82.5 54.5l58 -86q-40 -34 -98 -62.5t-144 -28.5q-138 0 -230.5 95.5t-92.5 277.5z" />
<glyph unicode="&#xaa;" d="M214 0v132h774v-132h-774zM215 877q0 133 116 200.5t318 67.5h120v71q0 88 -56 127.5t-151 39.5q-43 0 -107.5 -11t-137.5 -37l-40 98q87 34 161 46.5t141 12.5q157 0 237.5 -73t80.5 -198v-416q0 -46 17.5 -68t50.5 -33l-30 -89q-55 7 -92 35t-57 84q-49 -56 -121 -86.5 t-147 -30.5q-136 0 -219.5 71t-83.5 189zM350 884q0 -84 51 -126.5t142 -42.5q65 0 125 31.5t101 85.5v217h-131q-151 0 -219.5 -43.5t-68.5 -121.5z" />
<glyph unicode="&#xab;" d="M183 541v98l354 412l77 -50l-281 -410l281 -408l-77 -50zM581 541v98l356 412l77 -50l-281 -410l281 -408l-77 -50z" />
<glyph unicode="&#xac;" d="M250 563v113h700v-389h-123v276h-577z" />
<glyph unicode="&#xad;" d="M293 568v116h614v-116h-614z" />
<glyph unicode="&#xae;" d="M106 988q0 136 67 249t179 181t247 68q136 0 248 -68t178.5 -181t66.5 -249t-66.5 -248t-178.5 -179t-248 -67q-135 0 -247 67t-179 179t-67 248zM195 988q0 -114 53 -207.5t144.5 -149.5t206.5 -56q116 0 207 56t144 149.5t53 207.5t-53 208.5t-144 151t-207 56.5 q-115 0 -206.5 -56.5t-144.5 -151t-53 -208.5zM406 711v562h168q240 0 240 -167q0 -66 -40 -105t-99 -54l177 -236h-123l-159 220h-60v-220h-104zM510 1010h69q60 0 93.5 21t33.5 73q0 87 -132 87h-64v-181z" />
<glyph unicode="&#xaf;" d="M340 1363v101h517v-101h-517z" />
<glyph unicode="&#xb0;" d="M128 1189q0 97 45 164.5t117 103t152 35.5q83 0 154.5 -35.5t116 -104t44.5 -166.5t-44.5 -166.5t-116 -103.5t-154.5 -35q-80 0 -152 35.5t-117 104t-45 168.5zM252 1189q0 -109 60.5 -158.5t129.5 -49.5q72 0 131 49t59 156t-59 156.5t-131 49.5q-69 0 -129.5 -48 t-60.5 -155z" />
<glyph unicode="&#xb1;" d="M250 0v118h700v-118h-700zM250 657v112h285v294h130v-294h285v-112h-285v-339h-130v339h-285z" />
<glyph unicode="&#xb2;" d="M313 1140q123 144 292 144q125 0 193 -58t68 -156q0 -65 -34 -115t-111.5 -100t-207.5 -117h371l-14 -108h-550v93q164 102 254.5 160.5t127 99.5t36.5 88q0 50 -33.5 77.5t-95.5 27.5q-52 0 -105.5 -23.5t-100.5 -81.5z" />
<glyph unicode="&#xb3;" d="M302 737l81 66q47 -43 106.5 -64.5t117.5 -21.5q86 0 126 29t40 74q0 58 -40 81.5t-115 23.5h-89l12 72h65q67 0 105 20t38 72q0 98 -136 98q-56 0 -111.5 -19.5t-107.5 -62.5l-67 74q70 59 143.5 82t147.5 23q118 0 186 -47.5t68 -130.5q0 -52 -31 -85t-113 -46 q86 -13 128.5 -46t42.5 -107q0 -89 -78 -146.5t-223 -57.5q-77 0 -155.5 27.5t-140.5 91.5z" />
<glyph unicode="&#xb4;" d="M392 1360l380 211l64 -116l-402 -165z" />
<glyph unicode="&#xb5;" d="M190 -419v1469h125v-586q0 -111 12.5 -192.5t54.5 -125.5t130 -44q107 0 183 53.5t124 119.5v775h124v-727q0 -104 21.5 -187t43.5 -136l-121 -22q-19 26 -34.5 82t-20.5 92q-48 -79 -132 -126t-165 -47q-88 0 -134.5 23t-83.5 78q-1 -48 0.5 -86.5t1.5 -51.5v-343z" />
<glyph unicode="&#xb6;" d="M99 979q0 109 58 198.5t171.5 143t280.5 53.5h489v-1771l-121 -22v1675h-242v-1653l-121 -22v1010q-171 -2 -285.5 51t-172 142.5t-57.5 194.5z" />
<glyph unicode="&#xb7;" d="M437 684q0 45 21 81.5t57 57.5t82 21q48 0 85 -21t58 -57.5t21 -81.5q0 -46 -21 -83.5t-58 -59t-85 -21.5q-46 0 -82 21.5t-57 59t-21 83.5z" />
<glyph unicode="&#xb8;" d="M384 -418l48 83q28 -15 66 -23t71 -8q54 0 89 20t35 68q0 58 -46.5 74.5t-123.5 16.5l14 219h97v-151q97 -7 138 -56t41 -102q0 -65 -33.5 -106t-85.5 -60.5t-109 -19.5t-110 11.5t-91 33.5z" />
<glyph unicode="&#xb9;" d="M412 1100l287 172h90v-642h-115v495l-202 -112z" />
<glyph unicode="&#xba;" d="M202 1055q0 131 49.5 229t139.5 153t209 55q121 0 209.5 -52.5t137 -150.5t48.5 -234q0 -129 -49 -228t-137.5 -154.5t-208.5 -55.5q-121 0 -210 54t-138.5 152.5t-49.5 231.5zM215 0v132h773v-132h-773zM338 1055q0 -167 71 -249t191 -82t189.5 82t69.5 249t-69.5 247.5 t-189.5 80.5t-191 -80.5t-71 -247.5z" />
<glyph unicode="&#xbb;" d="M183 183l282 408l-282 410l77 50l354 -412v-98l-354 -408zM581 183l282 408l-282 410l77 50l356 -412v-98l-356 -408z" />
<glyph unicode="&#xbc;" d="M8 1204l287 172h90v-642h-115v495l-202 -112zM28 467l1070 512l54 -94l-1068 -512zM593 112v86l280 465l103 -47l-239 -394h210l7 175h121v-175h118v-110h-118v-112h-126v112h-356z" />
<glyph unicode="&#xbd;" d="M2 1204l287 172h90v-642h-115v495l-202 -112zM20 467l1070 512l54 -94l-1068 -512zM629 510q123 144 292 144q125 0 193 -58t68 -156q0 -65 -34 -115t-111.5 -100t-207.5 -117h371l-14 -108h-550v93q164 102 254.5 160.5t127 99.5t36.5 88q0 50 -33.5 77.5t-95.5 27.5 q-52 0 -105.5 -23.5t-100.5 -81.5z" />
<glyph unicode="&#xbe;" d="M1 841l81 66q47 -43 106.5 -64.5t117.5 -21.5q86 0 126 29t40 74q0 58 -40 81.5t-115 23.5h-89l12 72h65q67 0 105 20t38 72q0 98 -136 98q-56 0 -111.5 -19.5t-107.5 -62.5l-67 74q70 59 143.5 82t147.5 23q118 0 186 -47.5t68 -130.5q0 -52 -31 -85t-113 -46 q86 -13 128.5 -46t42.5 -107q0 -89 -78 -146.5t-223 -57.5q-77 0 -155.5 27.5t-140.5 91.5zM49 467l1070 512l54 -94l-1068 -512zM598 112v86l280 465l103 -47l-239 -394h210l7 175h121v-175h118v-110h-118v-112h-126v112h-356z" />
<glyph unicode="&#xbf;" d="M236 -122q0 95 36 155t89.5 102t106.5 82.5t89 95.5t36 142v78h134v-88q0 -95 -36.5 -158.5t-90.5 -109.5t-108 -86.5t-90.5 -89t-36.5 -118.5q0 -95 74.5 -146.5t184.5 -51.5q72 0 150.5 36t142.5 117l96 -68q-88 -103 -190 -148t-212 -45q-114 0 -198 43.5 t-130.5 112.5t-46.5 145zM533 869q0 51 34 85.5t84 34.5q52 0 87 -34.5t35 -85.5q0 -49 -35 -84.5t-87 -35.5q-50 0 -84 35.5t-34 84.5z" />
<glyph unicode="&#xc0;" d="M60 0l455 1374h169l456 -1374h-132l-121 367h-586l-121 -367h-120zM344 483h501l-249 772zM381 1676l86 117l351 -210l-44 -69z" />
<glyph unicode="&#xc1;" d="M60 0l455 1374h169l456 -1374h-132l-121 367h-586l-121 -367h-120zM344 483h501l-249 772zM381 1583l386 201l63 -117l-413 -153z" />
<glyph unicode="&#xc2;" d="M60 0l455 1374h169l456 -1374h-132l-121 367h-586l-121 -367h-120zM290 1600l267 202h89l265 -202l-62 -72l-249 158l-246 -158zM344 483h501l-249 772z" />
<glyph unicode="&#xc3;" d="M60 0l455 1374h169l456 -1374h-132l-121 367h-586l-121 -367h-120zM287 1619q33 63 82.5 105.5t117.5 42.5q54 0 91.5 -24.5t70 -49t70.5 -24.5q29 0 54 21.5t53 66.5l90 -46q-39 -79 -89.5 -111.5t-108.5 -32.5q-51 0 -89.5 24.5t-72.5 49.5t-72 25q-33 0 -57.5 -24 t-48.5 -70zM344 483h501l-249 772z" />
<glyph unicode="&#xc4;" d="M60 0l455 1374h169l456 -1374h-132l-121 367h-586l-121 -367h-120zM306 1629q0 41 26.5 67t67.5 26q38 0 64.5 -26t26.5 -67q0 -39 -26.5 -64.5t-64.5 -25.5q-41 0 -67.5 25.5t-26.5 64.5zM344 483h501l-249 772zM706 1629q0 41 26 67t65 26q41 0 67.5 -26t26.5 -67 q0 -39 -26.5 -64.5t-67.5 -25.5q-39 0 -65 25.5t-26 64.5z" />
<glyph unicode="&#xc5;" d="M60 0l455 1374h169l456 -1374h-132l-121 367h-586l-121 -367h-120zM344 483h501l-249 772zM395 1669q0 81 59 135t147 54q87 0 146 -54t59 -135q0 -52 -27 -94t-73.5 -66.5t-104.5 -24.5t-105 24.5t-74 66.5t-27 94zM487 1669q0 -52 31 -84.5t83 -32.5q53 0 83 32.5 t30 84.5q0 54 -30 86.5t-83 32.5q-52 0 -83 -32.5t-31 -86.5z" />
<glyph unicode="&#xc6;" d="M-24 0l420 1374h737l-17 -117h-503l112 -501h390v-117h-367l113 -522h357v-117h-469l-80 365h-445l-112 -365h-136zM272 487h366l-160 775z" />
<glyph unicode="&#xc7;" d="M144 687q0 232 79.5 389t210 237t282.5 80q131 0 218 -32.5t167 -96.5l-78 -89q-67 57 -140.5 79.5t-152.5 22.5q-120 0 -223.5 -55t-166.5 -183.5t-63 -351.5q0 -217 60 -346t161.5 -186t225.5 -57q119 0 195.5 34t130.5 79l72 -92q-58 -56 -155.5 -97.5t-240.5 -41.5 q-161 0 -293.5 81.5t-210.5 239t-78 386.5zM482 -418l48 83q28 -15 66 -23t71 -8q54 0 89 20t35 68q0 58 -46.5 74.5t-123.5 16.5l14 219h97v-151q97 -7 138 -56t41 -102q0 -65 -33.5 -106t-85.5 -60.5t-109 -19.5t-110 11.5t-91 33.5z" />
<glyph unicode="&#xc8;" d="M270 0v1374h746l-17 -114h-601v-503h520v-117h-520v-529h641v-111h-769zM424 1676l86 117l351 -210l-44 -69z" />
<glyph unicode="&#xc9;" d="M270 0v1374h746l-17 -114h-601v-503h520v-117h-520v-529h641v-111h-769zM424 1583l386 201l63 -117l-413 -153z" />
<glyph unicode="&#xca;" d="M270 0v1374h746l-17 -114h-601v-503h520v-117h-520v-529h641v-111h-769zM333 1600l267 202h89l265 -202l-62 -72l-249 158l-246 -158z" />
<glyph unicode="&#xcb;" d="M270 0v1374h746l-17 -114h-601v-503h520v-117h-520v-529h641v-111h-769zM349 1629q0 41 26.5 67t67.5 26q38 0 64.5 -26t26.5 -67q0 -39 -26.5 -64.5t-64.5 -25.5q-41 0 -67.5 25.5t-26.5 64.5zM749 1629q0 41 26 67t65 26q41 0 67.5 -26t26.5 -67q0 -39 -26.5 -64.5 t-67.5 -25.5q-39 0 -65 25.5t-26 64.5z" />
<glyph unicode="&#xcc;" d="M223 0v109h312v1156h-312v109h754v-109h-312v-1156h312v-109h-754zM381 1676l86 117l351 -210l-44 -69z" />
<glyph unicode="&#xcd;" d="M223 0v109h312v1156h-312v109h754v-109h-312v-1156h312v-109h-754zM381 1583l386 201l63 -117l-413 -153z" />
<glyph unicode="&#xce;" d="M223 0v109h312v1156h-312v109h754v-109h-312v-1156h312v-109h-754zM290 1600l267 202h89l265 -202l-62 -72l-249 158l-246 -158z" />
<glyph unicode="&#xcf;" d="M223 0v109h312v1156h-312v109h754v-109h-312v-1156h312v-109h-754zM306 1629q0 41 26.5 67t67.5 26q38 0 64.5 -26t26.5 -67q0 -39 -26.5 -64.5t-64.5 -25.5q-41 0 -67.5 25.5t-26.5 64.5zM706 1629q0 41 26 67t65 26q41 0 67.5 -26t26.5 -67q0 -39 -26.5 -64.5 t-67.5 -25.5q-39 0 -65 25.5t-26 64.5z" />
<glyph unicode="&#xd0;" d="M47 649v114h622v-114h-622zM203 0v1374h277q117 0 229 -26.5t202.5 -99t144 -206t53.5 -348.5q0 -218 -56 -354.5t-147.5 -210.5t-197.5 -101.5t-207 -27.5h-298zM330 110h192q76 0 154.5 24t145 87t107.5 177.5t41 295.5q0 192 -42.5 305.5t-110.5 169.5t-146.5 74 t-151.5 18h-189v-1151z" />
<glyph unicode="&#xd1;" d="M186 0v1374h183l534 -1247q2 18 -2 93t-8.5 185t-4.5 233v736h126v-1374h-197l-520 1239q-1 -16 1 -66.5t5.5 -122.5t6 -152.5t2.5 -157.5v-740h-126zM278 1619q33 63 82.5 105.5t117.5 42.5q54 0 91.5 -24.5t70 -49t70.5 -24.5q29 0 54 21.5t53 66.5l90 -46 q-39 -79 -89.5 -111.5t-108.5 -32.5q-51 0 -89.5 24.5t-72.5 49.5t-72 25q-33 0 -57.5 -24t-48.5 -70z" />
<glyph unicode="&#xd2;" d="M107 682q0 206 55 366.5t165 252.5t273 92q164 0 273.5 -89.5t164.5 -249t55 -369.5q0 -205 -55 -364.5t-164.5 -250t-273.5 -90.5q-163 0 -273 88.5t-165 246.5t-55 367zM243 682q0 -280 86 -432t271 -152q190 0 273.5 152.5t83.5 434.5q0 281 -83 435.5t-274 154.5 t-274 -156t-83 -437zM381 1676l86 117l351 -210l-44 -69z" />
<glyph unicode="&#xd3;" d="M107 682q0 206 55 366.5t165 252.5t273 92q164 0 273.5 -89.5t164.5 -249t55 -369.5q0 -205 -55 -364.5t-164.5 -250t-273.5 -90.5q-163 0 -273 88.5t-165 246.5t-55 367zM243 682q0 -280 86 -432t271 -152q190 0 273.5 152.5t83.5 434.5q0 281 -83 435.5t-274 154.5 t-274 -156t-83 -437zM381 1583l386 201l63 -117l-413 -153z" />
<glyph unicode="&#xd4;" d="M107 682q0 206 55 366.5t165 252.5t273 92q164 0 273.5 -89.5t164.5 -249t55 -369.5q0 -205 -55 -364.5t-164.5 -250t-273.5 -90.5q-163 0 -273 88.5t-165 246.5t-55 367zM243 682q0 -280 86 -432t271 -152q190 0 273.5 152.5t83.5 434.5q0 281 -83 435.5t-274 154.5 t-274 -156t-83 -437zM290 1600l267 202h89l265 -202l-62 -72l-249 158l-246 -158z" />
<glyph unicode="&#xd5;" d="M107 682q0 206 55 366.5t165 252.5t273 92q164 0 273.5 -89.5t164.5 -249t55 -369.5q0 -205 -55 -364.5t-164.5 -250t-273.5 -90.5q-163 0 -273 88.5t-165 246.5t-55 367zM243 682q0 -280 86 -432t271 -152q190 0 273.5 152.5t83.5 434.5q0 281 -83 435.5t-274 154.5 t-274 -156t-83 -437zM287 1619q33 63 82.5 105.5t117.5 42.5q54 0 91.5 -24.5t70 -49t70.5 -24.5q29 0 54 21.5t53 66.5l90 -46q-39 -79 -89.5 -111.5t-108.5 -32.5q-51 0 -89.5 24.5t-72.5 49.5t-72 25q-33 0 -57.5 -24t-48.5 -70z" />
<glyph unicode="&#xd6;" d="M107 682q0 206 55 366.5t165 252.5t273 92q164 0 273.5 -89.5t164.5 -249t55 -369.5q0 -205 -55 -364.5t-164.5 -250t-273.5 -90.5q-163 0 -273 88.5t-165 246.5t-55 367zM243 682q0 -280 86 -432t271 -152q190 0 273.5 152.5t83.5 434.5q0 281 -83 435.5t-274 154.5 t-274 -156t-83 -437zM306 1629q0 41 26.5 67t67.5 26q38 0 64.5 -26t26.5 -67q0 -39 -26.5 -64.5t-64.5 -25.5q-41 0 -67.5 25.5t-26.5 64.5zM706 1629q0 41 26 67t65 26q41 0 67.5 -26t26.5 -67q0 -39 -26.5 -64.5t-67.5 -25.5q-39 0 -65 25.5t-26 64.5z" />
<glyph unicode="&#xd7;" d="M266 364l248 250l-248 250l84 87l250 -251l250 251l84 -87l-248 -250l248 -250l-84 -84l-250 248l-250 -248z" />
<glyph unicode="&#xd8;" d="M107 682q0 206 55 366.5t165 252.5t273 92q165 0 274.5 -89.5t164 -249t54.5 -369.5q0 -205 -55 -364.5t-164.5 -250t-273.5 -90.5q-165 0 -274.5 88.5t-164 246.5t-54.5 367zM248 682q0 -214 37.5 -341.5t115.5 -183.5t199 -56q188 0 270 152t82 432q0 215 -36 344 t-113.5 186t-202.5 57q-188 0 -270 -155.5t-82 -434.5zM271 -189l77 243l31 66l333 1157l25 97l66 232l129 -31l-79 -258l-31 -54l-343 -1190l-8 -62l-71 -232z" />
<glyph unicode="&#xd9;" d="M163 441v933h126v-977q0 -148 85 -221.5t223 -73.5q140 0 225.5 73.5t85.5 221.5v977h129v-933q0 -139 -56 -242.5t-155 -161t-229 -57.5q-132 0 -229.5 58.5t-151 162.5t-53.5 240zM381 1676l86 117l351 -210l-44 -69z" />
<glyph unicode="&#xda;" d="M163 441v933h126v-977q0 -148 85 -221.5t223 -73.5q140 0 225.5 73.5t85.5 221.5v977h129v-933q0 -139 -56 -242.5t-155 -161t-229 -57.5q-132 0 -229.5 58.5t-151 162.5t-53.5 240zM381 1583l386 201l63 -117l-413 -153z" />
<glyph unicode="&#xdb;" d="M163 441v933h126v-977q0 -148 85 -221.5t223 -73.5q140 0 225.5 73.5t85.5 221.5v977h129v-933q0 -139 -56 -242.5t-155 -161t-229 -57.5q-132 0 -229.5 58.5t-151 162.5t-53.5 240zM290 1600l267 202h89l265 -202l-62 -72l-249 158l-246 -158z" />
<glyph unicode="&#xdc;" d="M163 441v933h126v-977q0 -148 85 -221.5t223 -73.5q140 0 225.5 73.5t85.5 221.5v977h129v-933q0 -139 -56 -242.5t-155 -161t-229 -57.5q-132 0 -229.5 58.5t-151 162.5t-53.5 240zM306 1629q0 41 26.5 67t67.5 26q38 0 64.5 -26t26.5 -67q0 -39 -26.5 -64.5 t-64.5 -25.5q-41 0 -67.5 25.5t-26.5 64.5zM706 1629q0 41 26 67t65 26q41 0 67.5 -26t26.5 -67q0 -39 -26.5 -64.5t-67.5 -25.5q-39 0 -65 25.5t-26 64.5z" />
<glyph unicode="&#xdd;" d="M66 1374h142l395 -717l400 717h131l-469 -840v-534h-130v532zM390 1583l386 201l63 -117l-413 -153z" />
<glyph unicode="&#xde;" d="M243 0v1374h126v-235h224q239 0 372.5 -103.5t133.5 -324.5q0 -160 -68 -258.5t-185.5 -143.5t-266.5 -45h-210v-264h-126zM369 374h246q101 0 180 28.5t124 101t45 202.5q0 174 -97.5 249t-248.5 75h-249v-656z" />
<glyph unicode="&#xdf;" d="M213 0v1068q0 212 104 318t279 106q143 0 237 -77t94 -203q0 -60 -24 -102.5t-60 -74t-72 -58.5t-60 -55.5t-24 -66.5q0 -54 42 -92t104 -73.5t124.5 -80t104.5 -110.5t42 -166q0 -115 -51 -193.5t-134 -119t-179 -40.5q-80 0 -143 18t-116 53l58 87q39 -23 91.5 -38 t101.5 -15q113 0 180 58t67 179q0 67 -31 114t-79.5 82.5t-102.5 67t-102.5 66.5t-79.5 81.5t-31 111.5q0 59 26 97.5t64.5 67t77 53.5t64.5 56t26 76q0 38 -18.5 81.5t-65 75t-130.5 31.5q-123 0 -191.5 -68t-68.5 -236v-1079h-124z" />
<glyph unicode="&#xe0;" d="M157 303q0 160 124.5 245t362.5 85h159v102q0 123 -70.5 172.5t-192.5 49.5q-53 0 -120 -12t-149 -41l-36 102q95 35 172.5 49t150.5 14q185 0 279.5 -90.5t94.5 -239.5v-532q0 -64 22 -93.5t68 -43.5l-34 -91q-60 9 -107 44t-66 107q-55 -73 -137.5 -111.5t-186.5 -38.5 q-156 0 -245 88t-89 235zM294 299q0 -109 54 -164.5t167 -55.5q86 0 161 42t127 117v300h-174q-187 0 -261 -65.5t-74 -173.5zM365 1429l80 116l349 -228l-45 -73z" />
<glyph unicode="&#xe1;" d="M157 303q0 160 124.5 245t362.5 85h159v102q0 123 -70.5 172.5t-192.5 49.5q-53 0 -120 -12t-149 -41l-36 102q95 35 172.5 49t150.5 14q185 0 279.5 -90.5t94.5 -239.5v-532q0 -64 22 -93.5t68 -43.5l-34 -91q-60 9 -107 44t-66 107q-55 -73 -137.5 -111.5t-186.5 -38.5 q-156 0 -245 88t-89 235zM294 299q0 -109 54 -164.5t167 -55.5q86 0 161 42t127 117v300h-174q-187 0 -261 -65.5t-74 -173.5zM375 1360l380 211l64 -116l-402 -165z" />
<glyph unicode="&#xe2;" d="M157 303q0 160 124.5 245t362.5 85h159v102q0 123 -70.5 172.5t-192.5 49.5q-53 0 -120 -12t-149 -41l-36 102q95 35 172.5 49t150.5 14q185 0 279.5 -90.5t94.5 -239.5v-532q0 -64 22 -93.5t68 -43.5l-34 -91q-60 9 -107 44t-66 107q-55 -73 -137.5 -111.5t-186.5 -38.5 q-156 0 -245 88t-89 235zM273 1338l267 225h89l265 -225l-65 -70l-243 179l-243 -179zM294 299q0 -109 54 -164.5t167 -55.5q86 0 161 42t127 117v300h-174q-187 0 -261 -65.5t-74 -173.5z" />
<glyph unicode="&#xe3;" d="M157 303q0 160 124.5 245t362.5 85h159v102q0 123 -70.5 172.5t-192.5 49.5q-53 0 -120 -12t-149 -41l-36 102q95 35 172.5 49t150.5 14q185 0 279.5 -90.5t94.5 -239.5v-532q0 -64 22 -93.5t68 -43.5l-34 -91q-60 9 -107 44t-66 107q-55 -73 -137.5 -111.5t-186.5 -38.5 q-156 0 -245 88t-89 235zM270 1383q33 63 82.5 105.5t117.5 42.5q54 0 91.5 -24.5t70 -49t70.5 -24.5q29 0 54 21.5t53 66.5l90 -46q-39 -79 -89.5 -111.5t-108.5 -32.5q-51 0 -89.5 24.5t-72.5 49.5t-72 25q-33 0 -57.5 -24t-48.5 -70zM294 299q0 -109 54 -164.5t167 -55.5 q86 0 161 42t127 117v300h-174q-187 0 -261 -65.5t-74 -173.5z" />
<glyph unicode="&#xe4;" d="M157 303q0 160 124.5 245t362.5 85h159v102q0 123 -70.5 172.5t-192.5 49.5q-53 0 -120 -12t-149 -41l-36 102q95 35 172.5 49t150.5 14q185 0 279.5 -90.5t94.5 -239.5v-532q0 -64 22 -93.5t68 -43.5l-34 -91q-60 9 -107 44t-66 107q-55 -73 -137.5 -111.5t-186.5 -38.5 q-156 0 -245 88t-89 235zM289 1393q0 41 26.5 67t67.5 26q38 0 64.5 -26t26.5 -67q0 -39 -26.5 -64.5t-64.5 -25.5q-41 0 -67.5 25.5t-26.5 64.5zM294 299q0 -109 54 -164.5t167 -55.5q86 0 161 42t127 117v300h-174q-187 0 -261 -65.5t-74 -173.5zM689 1393q0 41 26 67 t65 26q41 0 67.5 -26t26.5 -67q0 -39 -26.5 -64.5t-67.5 -25.5q-39 0 -65 25.5t-26 64.5z" />
<glyph unicode="&#xe5;" d="M157 303q0 160 124.5 245t362.5 85h159v102q0 123 -70.5 172.5t-192.5 49.5q-53 0 -120 -12t-149 -41l-36 102q95 35 172.5 49t150.5 14q185 0 279.5 -90.5t94.5 -239.5v-532q0 -64 22 -93.5t68 -43.5l-34 -91q-60 9 -107 44t-66 107q-55 -73 -137.5 -111.5t-186.5 -38.5 q-156 0 -245 88t-89 235zM294 299q0 -109 54 -164.5t167 -55.5q86 0 161 42t127 117v300h-174q-187 0 -261 -65.5t-74 -173.5zM378 1433q0 81 59 135t147 54q87 0 146 -54t59 -135q0 -52 -27 -94t-73.5 -66.5t-104.5 -24.5t-105 24.5t-74 66.5t-27 94zM470 1433 q0 -52 31 -84.5t83 -32.5q53 0 83 32.5t30 84.5q0 54 -30 86.5t-83 32.5q-52 0 -83 -32.5t-31 -86.5z" />
<glyph unicode="&#xe6;" d="M-12 301q0 163 112 249.5t324 86.5h93v98q0 113 -48 161.5t-136 48.5q-54 0 -101 -13.5t-113 -42.5l-38 114q63 30 133.5 48t130.5 18q117 0 176.5 -50.5t86.5 -135.5q29 87 96.5 136.5t168.5 49.5q177 0 260.5 -137.5t83.5 -370.5q0 -56 -3 -92h-555q14 -190 68.5 -279 t166.5 -89q62 0 108 22t98 62l65 -102q-60 -47 -123.5 -75t-144.5 -28q-105 0 -176.5 48t-128.5 151q-64 -110 -130.5 -154.5t-166.5 -44.5q-139 0 -223 87.5t-84 233.5zM144 309q0 -110 46 -165.5t119 -55.5q75 0 129 52t108 153q-13 56 -21 116.5t-8 127.5h-97 q-157 0 -216.5 -63t-59.5 -165zM659 589h416q-4 174 -48 266t-157 92q-98 0 -147 -80.5t-64 -277.5z" />
<glyph unicode="&#xe7;" d="M197 521q0 156 55.5 280t162 196t260.5 72q95 0 181.5 -30t159.5 -89l-66 -89q-71 49 -140.5 73.5t-140.5 24.5q-145 0 -239.5 -110t-94.5 -328q0 -147 43 -241.5t118.5 -140t172.5 -45.5q84 0 155.5 26t129.5 67l65 -84q-69 -58 -165 -90.5t-180 -32.5 q-153 0 -259.5 66.5t-162 188.5t-55.5 286zM462 -418l48 83q28 -15 66 -23t71 -8q54 0 89 20t35 68q0 58 -46.5 74.5t-123.5 16.5l14 219h97v-151q97 -7 138 -56t41 -102q0 -65 -33.5 -106t-85.5 -60.5t-109 -19.5t-110 11.5t-91 33.5z" />
<glyph unicode="&#xe8;" d="M176 524q0 160 56 283t155.5 192.5t231.5 69.5q128 0 219 -62t139.5 -175.5t48.5 -270.5q0 -27 -1 -48.5t-2 -37.5h-714q3 -132 47.5 -216.5t117.5 -124.5t159 -40q83 0 147.5 24t135.5 73l65 -93q-73 -56 -164.5 -87t-178.5 -31q-145 0 -248.5 68t-158.5 190.5 t-55 285.5zM311 587h597q-4 185 -83 275.5t-203 90.5q-127 0 -213.5 -90t-97.5 -276zM405 1429l80 116l349 -228l-45 -73z" />
<glyph unicode="&#xe9;" d="M176 524q0 160 56 283t155.5 192.5t231.5 69.5q128 0 219 -62t139.5 -175.5t48.5 -270.5q0 -27 -1 -48.5t-2 -37.5h-714q3 -132 47.5 -216.5t117.5 -124.5t159 -40q83 0 147.5 24t135.5 73l65 -93q-73 -56 -164.5 -87t-178.5 -31q-145 0 -248.5 68t-158.5 190.5 t-55 285.5zM311 587h597q-4 185 -83 275.5t-203 90.5q-127 0 -213.5 -90t-97.5 -276zM415 1360l380 211l64 -116l-402 -165z" />
<glyph unicode="&#xea;" d="M176 524q0 160 56 283t155.5 192.5t231.5 69.5q128 0 219 -62t139.5 -175.5t48.5 -270.5q0 -27 -1 -48.5t-2 -37.5h-714q3 -132 47.5 -216.5t117.5 -124.5t159 -40q83 0 147.5 24t135.5 73l65 -93q-73 -56 -164.5 -87t-178.5 -31q-145 0 -248.5 68t-158.5 190.5 t-55 285.5zM311 587h597q-4 185 -83 275.5t-203 90.5q-127 0 -213.5 -90t-97.5 -276zM313 1338l267 225h89l265 -225l-65 -70l-243 179l-243 -179z" />
<glyph unicode="&#xeb;" d="M176 524q0 160 56 283t155.5 192.5t231.5 69.5q128 0 219 -62t139.5 -175.5t48.5 -270.5q0 -27 -1 -48.5t-2 -37.5h-714q3 -132 47.5 -216.5t117.5 -124.5t159 -40q83 0 147.5 24t135.5 73l65 -93q-73 -56 -164.5 -87t-178.5 -31q-145 0 -248.5 68t-158.5 190.5 t-55 285.5zM311 587h597q-4 185 -83 275.5t-203 90.5q-127 0 -213.5 -90t-97.5 -276zM329 1393q0 41 26.5 67t67.5 26q38 0 64.5 -26t26.5 -67q0 -39 -26.5 -64.5t-64.5 -25.5q-41 0 -67.5 25.5t-26.5 64.5zM729 1393q0 41 26 67t65 26q41 0 67.5 -26t26.5 -67 q0 -39 -26.5 -64.5t-67.5 -25.5q-39 0 -65 25.5t-26 64.5z" />
<glyph unicode="&#xec;" d="M262 0v108h332v834h-322v108h446v-942h305v-108h-761zM386 1429l80 116l349 -228l-45 -73z" />
<glyph unicode="&#xed;" d="M262 0v108h332v834h-322v108h446v-942h305v-108h-761zM396 1360l380 211l64 -116l-402 -165z" />
<glyph unicode="&#xee;" d="M262 0v108h332v834h-322v108h446v-942h305v-108h-761zM294 1338l267 225h89l265 -225l-65 -70l-243 179l-243 -179z" />
<glyph unicode="&#xef;" d="M262 0v108h332v834h-322v108h446v-942h305v-108h-761zM310 1393q0 41 26.5 67t67.5 26q38 0 64.5 -26t26.5 -67q0 -39 -26.5 -64.5t-64.5 -25.5q-41 0 -67.5 25.5t-26.5 64.5zM710 1393q0 41 26 67t65 26q41 0 67.5 -26t26.5 -67q0 -39 -26.5 -64.5t-67.5 -25.5 q-39 0 -65 25.5t-26 64.5z" />
<glyph unicode="&#xf0;" d="M150 471q0 148 58.5 258t155.5 171t210 61q106 0 189 -39t141 -110q-26 134 -98 245t-175 186l-170 -176l-96 52l175 183q-52 27 -113 46t-136 35l30 110q89 -21 164.5 -46.5t136.5 -60.5l137 147l83 -73l-129 -134q173 -122 255.5 -318t82.5 -489q0 -169 -58.5 -290 t-162 -185t-239.5 -64q-121 0 -221 57t-160 167t-60 267zM277 481q0 -189 87 -291t221 -102q152 0 246 115.5t94 337.5q0 35 -1.5 65.5t-5.5 61.5q-55 90 -143.5 137t-196.5 47q-77 0 -146 -39t-112 -120.5t-43 -211.5z" />
<glyph unicode="&#xf1;" d="M219 0v1050h104l10 -153q62 82 163.5 127t189.5 45q161 0 229.5 -82t68.5 -227v-760h-124v627q0 120 -13 195t-56 109.5t-135 34.5q-70 0 -131.5 -30.5t-108 -75t-73.5 -86.5v-774h-124zM286 1383q33 63 82.5 105.5t117.5 42.5q54 0 91.5 -24.5t70 -49t70.5 -24.5 q29 0 54 21.5t53 66.5l90 -46q-39 -79 -89.5 -111.5t-108.5 -32.5q-51 0 -89.5 24.5t-72.5 49.5t-72 25q-33 0 -57.5 -24t-48.5 -70z" />
<glyph unicode="&#xf2;" d="M166 523q0 161 49 284t146.5 192.5t241.5 69.5t240 -67t143.5 -189t47.5 -288q0 -156 -49 -279t-145.5 -194.5t-239.5 -71.5q-144 0 -240.5 68.5t-145 191t-48.5 283.5zM302 523q0 -218 75 -325.5t223 -107.5t223 107.5t75 327.5q0 221 -74.5 328t-220.5 107 q-148 0 -224.5 -107t-76.5 -330zM382 1429l80 116l349 -228l-45 -73z" />
<glyph unicode="&#xf3;" d="M166 523q0 161 49 284t146.5 192.5t241.5 69.5t240 -67t143.5 -189t47.5 -288q0 -156 -49 -279t-145.5 -194.5t-239.5 -71.5q-144 0 -240.5 68.5t-145 191t-48.5 283.5zM302 523q0 -218 75 -325.5t223 -107.5t223 107.5t75 327.5q0 221 -74.5 328t-220.5 107 q-148 0 -224.5 -107t-76.5 -330zM392 1360l380 211l64 -116l-402 -165z" />
<glyph unicode="&#xf4;" d="M166 523q0 161 49 284t146.5 192.5t241.5 69.5t240 -67t143.5 -189t47.5 -288q0 -156 -49 -279t-145.5 -194.5t-239.5 -71.5q-144 0 -240.5 68.5t-145 191t-48.5 283.5zM290 1338l267 225h89l265 -225l-65 -70l-243 179l-243 -179zM302 523q0 -218 75 -325.5t223 -107.5 t223 107.5t75 327.5q0 221 -74.5 328t-220.5 107q-148 0 -224.5 -107t-76.5 -330z" />
<glyph unicode="&#xf5;" d="M166 523q0 161 49 284t146.5 192.5t241.5 69.5t240 -67t143.5 -189t47.5 -288q0 -156 -49 -279t-145.5 -194.5t-239.5 -71.5q-144 0 -240.5 68.5t-145 191t-48.5 283.5zM287 1383q33 63 82.5 105.5t117.5 42.5q54 0 91.5 -24.5t70 -49t70.5 -24.5q29 0 54 21.5t53 66.5 l90 -46q-39 -79 -89.5 -111.5t-108.5 -32.5q-51 0 -89.5 24.5t-72.5 49.5t-72 25q-33 0 -57.5 -24t-48.5 -70zM302 523q0 -218 75 -325.5t223 -107.5t223 107.5t75 327.5q0 221 -74.5 328t-220.5 107q-148 0 -224.5 -107t-76.5 -330z" />
<glyph unicode="&#xf6;" d="M166 523q0 161 49 284t146.5 192.5t241.5 69.5t240 -67t143.5 -189t47.5 -288q0 -156 -49 -279t-145.5 -194.5t-239.5 -71.5q-144 0 -240.5 68.5t-145 191t-48.5 283.5zM302 523q0 -218 75 -325.5t223 -107.5t223 107.5t75 327.5q0 221 -74.5 328t-220.5 107 q-148 0 -224.5 -107t-76.5 -330zM306 1393q0 41 26.5 67t67.5 26q38 0 64.5 -26t26.5 -67q0 -39 -26.5 -64.5t-64.5 -25.5q-41 0 -67.5 25.5t-26.5 64.5zM706 1393q0 41 26 67t65 26q41 0 67.5 -26t26.5 -67q0 -39 -26.5 -64.5t-67.5 -25.5q-39 0 -65 25.5t-26 64.5z" />
<glyph unicode="&#xf7;" d="M250 563v113h700v-113h-700zM479 240q0 49 35.5 83.5t85.5 34.5t85.5 -34.5t35.5 -83.5q0 -52 -35.5 -87t-85.5 -35t-85.5 35t-35.5 87zM479 1003q0 49 35.5 83.5t85.5 34.5t85.5 -34.5t35.5 -83.5q0 -52 -35.5 -86t-85.5 -34t-85.5 34t-35.5 86z" />
<glyph unicode="&#xf8;" d="M166 523q0 161 49 284t146.5 192.5t241.5 69.5q137 0 233 -67t147 -189t51 -288q0 -156 -49 -279t-145.5 -194.5t-239.5 -71.5q-137 0 -234 68.5t-148.5 191t-51.5 283.5zM302 -223l93 283l31 68l265 863l17 58l79 254l114 -33l-89 -269l-24 -38l-266 -866l-30 -91 l-77 -263zM305 523q0 -154 35 -249t101 -138t159 -43q146 0 220.5 107t74.5 325q0 156 -35 251t-100 138t-157 43q-146 0 -222 -106.5t-76 -327.5z" />
<glyph unicode="&#xf9;" d="M219 284v766h124v-751q0 -112 47.5 -163.5t150.5 -51.5q98 0 184 55.5t132 127.5v783h124v-1050h-104l-14 147q-64 -80 -156 -123.5t-184 -43.5q-152 0 -228 79.5t-76 224.5zM382 1429l80 116l349 -228l-45 -73z" />
<glyph unicode="&#xfa;" d="M219 284v766h124v-751q0 -112 47.5 -163.5t150.5 -51.5q98 0 184 55.5t132 127.5v783h124v-1050h-104l-14 147q-64 -80 -156 -123.5t-184 -43.5q-152 0 -228 79.5t-76 224.5zM392 1360l380 211l64 -116l-402 -165z" />
<glyph unicode="&#xfb;" d="M219 284v766h124v-751q0 -112 47.5 -163.5t150.5 -51.5q98 0 184 55.5t132 127.5v783h124v-1050h-104l-14 147q-64 -80 -156 -123.5t-184 -43.5q-152 0 -228 79.5t-76 224.5zM290 1338l267 225h89l265 -225l-65 -70l-243 179l-243 -179z" />
<glyph unicode="&#xfc;" d="M219 284v766h124v-751q0 -112 47.5 -163.5t150.5 -51.5q98 0 184 55.5t132 127.5v783h124v-1050h-104l-14 147q-64 -80 -156 -123.5t-184 -43.5q-152 0 -228 79.5t-76 224.5zM306 1393q0 41 26.5 67t67.5 26q38 0 64.5 -26t26.5 -67q0 -39 -26.5 -64.5t-64.5 -25.5 q-41 0 -67.5 25.5t-26.5 64.5zM706 1393q0 41 26 67t65 26q41 0 67.5 -26t26.5 -67q0 -39 -26.5 -64.5t-67.5 -25.5q-39 0 -65 25.5t-26 64.5z" />
<glyph unicode="&#xfd;" d="M143 1050h134l331 -944l320 944h129l-375 -1059q-34 -97 -84 -184t-133 -147.5t-216 -76.5l-22 108q110 20 172.5 60t98 102t63.5 147h-41zM392 1360l380 211l64 -116l-402 -165z" />
<glyph unicode="&#xfe;" d="M219 -418v1893l124 17v-579q61 76 141 116t171 40q141 0 224 -68t119 -190.5t36 -285.5q0 -158 -43.5 -281t-133 -193.5t-228.5 -70.5q-179 0 -286 125v-506zM343 236q44 -65 114 -104t152 -39q146 0 217.5 107t71.5 327q0 140 -28 237t-86.5 148t-150.5 51 q-97 0 -171 -58.5t-119 -124.5v-544z" />
<glyph unicode="&#xff;" d="M143 1050h134l331 -944l320 944h129l-375 -1059q-34 -97 -84 -184t-133 -147.5t-216 -76.5l-22 108q110 20 172.5 60t98 102t63.5 147h-41zM306 1393q0 41 26.5 67t67.5 26q38 0 64.5 -26t26.5 -67q0 -39 -26.5 -64.5t-64.5 -25.5q-41 0 -67.5 25.5t-26.5 64.5zM706 1393 q0 41 26 67t65 26q41 0 67.5 -26t26.5 -67q0 -39 -26.5 -64.5t-67.5 -25.5q-39 0 -65 25.5t-26 64.5z" />
<glyph unicode="&#x152;" d="M-9 682q0 347 108 529t316 182q32 0 64.5 -4t64.5 -15h680l-17 -117h-524q62 -67 99.5 -189.5t45.5 -311.5h325v-117h-326q-4 -196 -43.5 -323t-107.5 -199h571v-117h-708q-31 -9 -61.5 -14.5t-62.5 -5.5q-210 0 -317 175t-107 527zM149 682q0 -316 69 -450t197 -134 q137 0 203 135.5t66 451.5q0 209 -28.5 339t-88 190t-152.5 60q-132 0 -199 -137.5t-67 -454.5z" />
<glyph unicode="&#x153;" d="M-2 523q0 161 34 284t107.5 192.5t189.5 69.5q130 0 194.5 -60t98.5 -158q35 93 101 155.5t182 62.5q172 0 251 -137.5t79 -370.5q0 -27 -1 -50.5t-2 -41.5h-543q14 -189 66.5 -278.5t162.5 -89.5q60 0 104 22t96 62l65 -102q-61 -47 -122 -75t-141 -28 q-112 0 -186.5 56.5t-112.5 159.5q-38 -95 -103 -155.5t-189 -60.5q-114 0 -187 68.5t-108.5 191t-35.5 283.5zM153 523q0 -224 46 -328.5t153 -104.5q109 0 151.5 100t42.5 335q0 219 -43.5 328.5t-150.5 109.5t-153 -111t-46 -329zM690 589h403q-4 174 -44 266t-148 92 q-99 0 -148 -80.5t-63 -277.5z" />
<glyph unicode="&#x178;" d="M66 1374h142l395 -717l400 717h131l-469 -840v-534h-130v532zM315 1629q0 41 26.5 67t67.5 26q38 0 64.5 -26t26.5 -67q0 -39 -26.5 -64.5t-64.5 -25.5q-41 0 -67.5 25.5t-26.5 64.5zM715 1629q0 41 26 67t65 26q41 0 67.5 -26t26.5 -67q0 -39 -26.5 -64.5t-67.5 -25.5 q-39 0 -65 25.5t-26 64.5z" />
<glyph unicode="&#x2c6;" d="M290 1338l267 225h89l265 -225l-65 -70l-243 179l-243 -179z" />
<glyph unicode="&#x2dc;" d="M287 1383q33 63 82.5 105.5t117.5 42.5q54 0 91.5 -24.5t70 -49t70.5 -24.5q29 0 54 21.5t53 66.5l90 -46q-39 -79 -89.5 -111.5t-108.5 -32.5q-51 0 -89.5 24.5t-72.5 49.5t-72 25q-33 0 -57.5 -24t-48.5 -70z" />
<glyph unicode="&#x2000;" horiz-adv-x="929" />
<glyph unicode="&#x2001;" horiz-adv-x="1858" />
<glyph unicode="&#x2002;" horiz-adv-x="929" />
<glyph unicode="&#x2003;" horiz-adv-x="1858" />
<glyph unicode="&#x2004;" horiz-adv-x="619" />
<glyph unicode="&#x2005;" horiz-adv-x="464" />
<glyph unicode="&#x2006;" horiz-adv-x="309" />
<glyph unicode="&#x2007;" horiz-adv-x="309" />
<glyph unicode="&#x2008;" horiz-adv-x="232" />
<glyph unicode="&#x2009;" horiz-adv-x="371" />
<glyph unicode="&#x200a;" horiz-adv-x="103" />
<glyph unicode="&#x2010;" d="M209 568v116h782v-116h-782z" />
<glyph unicode="&#x2011;" d="M209 568v116h782v-116h-782z" />
<glyph unicode="&#x2012;" d="M209 568v116h782v-116h-782z" />
<glyph unicode="&#x2013;" d="M68 568v116h1064v-116h-1064z" />
<glyph unicode="&#x2014;" d="M0 568v116h1200v-116h-1200z" />
<glyph unicode="&#x2018;" d="M443 1109q0 20 4 44t23 66l171 359h116l-80 -371q21 -15 33.5 -41.5t12.5 -56.5q0 -57 -41.5 -96t-99.5 -39q-57 0 -98 39t-41 96z" />
<glyph unicode="&#x2019;" d="M441 974l80 371q-21 14 -33.5 41t-12.5 56q0 57 43 96.5t98 39.5q57 0 99 -39.5t42 -96.5q0 -24 -5 -45.5t-24 -63.5l-171 -359h-116z" />
<glyph unicode="&#x201a;" d="M441 -364l79 371q-21 15 -33.5 41.5t-12.5 56.5q0 57 43 96t98 39q57 0 99.5 -39t42.5 -96q0 -24 -5 -46t-25 -64l-170 -359h-116z" />
<glyph unicode="&#x201c;" d="M232 1109q0 20 4 44t23 66l168 359h119l-80 -371q21 -15 34 -41.5t13 -56.5q0 -57 -42 -96t-99 -39q-60 0 -100 39t-40 96zM654 1109q0 20 4 44t23 66l171 359h116l-79 -371q21 -15 33 -41.5t12 -56.5q0 -57 -42.5 -96t-98.5 -39q-57 0 -98 39t-41 96z" />
<glyph unicode="&#x201d;" d="M229 966l77 371q-19 15 -31 42t-12 55q0 57 42.5 97t98.5 40q57 0 99.5 -40t42.5 -97q0 -23 -6.5 -45t-26.5 -63l-168 -360h-116zM652 966l79 371q-21 15 -33.5 42t-12.5 55q0 57 43 97t98 40q58 0 100 -40t42 -97q0 -23 -5 -45t-24 -63l-171 -360h-116z" />
<glyph unicode="&#x201e;" d="M232 -364l79 371q-21 15 -33 41.5t-12 56.5q0 57 42.5 96t98.5 39q57 0 99 -39t42 -96q0 -24 -5 -46t-24 -64l-171 -359h-116zM652 -364l79 371q-21 15 -33.5 41.5t-12.5 56.5q0 57 43 96t98 39q58 0 98.5 -39t40.5 -96q0 -24 -4.5 -48t-21.5 -62l-171 -359h-116z" />
<glyph unicode="&#x2022;" d="M369 684q0 66 30.5 118t82.5 81.5t118 29.5t118.5 -30t82.5 -82.5t30 -118.5t-30 -118t-82.5 -81.5t-118.5 -29.5t-118 30t-82.5 82.5t-30.5 118.5z" />
<glyph unicode="&#x2026;" d="M74 109q0 51 35 87t88 36q56 0 91 -36t35 -87q0 -53 -35 -89.5t-91 -36.5q-53 0 -88 36.5t-35 89.5zM474 109q0 51 36.5 87t89.5 36t88 -36t35 -87q0 -53 -35 -89.5t-88 -36.5t-89.5 36.5t-36.5 89.5zM877 109q0 51 35 87t88 36q56 0 91 -36t35 -87q0 -53 -35 -89.5 t-91 -36.5q-53 0 -88 36.5t-35 89.5z" />
<glyph unicode="&#x202f;" horiz-adv-x="371" />
<glyph unicode="&#x2039;" d="M396 541v98l337 412l71 -44l-270 -416l270 -415l-71 -43z" />
<glyph unicode="&#x203a;" d="M396 176l271 415l-271 416l72 44l336 -412v-98l-336 -408z" />
<glyph unicode="&#x205f;" horiz-adv-x="464" />
<glyph unicode="&#x20ac;" d="M72 795l24 102h168q43 243 175 369.5t307 126.5q98 0 172 -21t141 -66l-75 -100q-55 36 -115 52t-119 16q-139 0 -230.5 -86.5t-120.5 -290.5h514l-25 -102h-499v-198h458l-24 -104h-430q25 -205 108 -300t239 -95q97 0 170 33t113 71v-150q-42 -28 -114.5 -50 t-169.5 -22q-202 0 -324.5 132.5t-154.5 380.5h-187l24 104h151l3 198h-179z" />
<glyph unicode="&#x2122;" d="M41 1279v93h710l108 -584l87 584h173l32 -773h-101l-25 520q-1 33 -3 79t-4 87h-6l-94 -631h-121l-123 631h-5q-1 -38 -2 -83.5t-3 -79.5l-21 -523h-91l29 680h-234v-680h-97v680h-209z" />
<glyph unicode="&#xfb01;" d="M46 944v106h189v141q0 95 53 162.5t139.5 103t185.5 35.5q75 0 138 -14t124 -40l-46 -101q-49 23 -106 34.5t-119 11.5q-118 0 -178.5 -46t-60.5 -138v-149h598v-942h207v-108h-543v108h207v836h-469v-944h-130v944h-189z" />
<glyph unicode="&#xfb02;" d="M32 944v106h195v141q0 95 52.5 162.5t139 103t188.5 35.5q57 0 101.5 -10t90.5 -27l128 32v-1268q0 -75 30.5 -103t82.5 -28q33 0 60 6t58 19l42 -90q-37 -19 -74 -31t-98 -12q-93 0 -161.5 55.5t-68.5 184.5v1137q-47 12 -95 17.5t-96 5.5q-124 0 -187.5 -44.5 t-63.5 -136.5v-149h280l-17 -106h-263v-944h-129v944h-195z" />
</font>
</defs>
</svg>
